<svg width="0" height="0" class="hidden">
  <symbol xmlns="http://www.w3.org/2000/svg" fill="none" viewBox="0 0 28 28" id="logo">
    <g clip-path="url(#a)">
      <path fill="#FFDA44" d="M14 28c7.732 0 14-6.268 14-14S21.732 0 14 0 0 6.268 0 14s6.268 14 14 14Z"></path>
      <path fill="#338AF3" d="M0 14C0 6.268 6.268 0 14 0s14 6.268 14 14"></path>
    </g>
    <defs>
      <clipPath id="a">
        <path fill="#fff" d="M0 0h28v28H0z"></path>
      </clipPath>
    </defs>
  </symbol>

  <symbol xmlns="http://www.w3.org/2000/svg" fill="none" viewBox="0 0 20 20" id="login">
    <path stroke="#F4C550" stroke-linecap="round" stroke-linejoin="round" stroke-width="2"
      d="M12.5 2.5h1c1.4 0 2.1 0 2.635.272a2.5 2.5 0 0 1 1.092 1.093C17.5 4.4 17.5 5.1 17.5 6.5v7c0 1.4 0 2.1-.273 2.635a2.5 2.5 0 0 1-1.092 1.092c-.535.273-1.235.273-2.635.273h-1M8.333 5.833 12.5 10m0 0-4.167 4.167M12.5 10h-10">
    </path>
  </symbol>

  <symbol xmlns="http://www.w3.org/2000/svg" id="log-out" viewBox="0 0 24 24">
    <path
      d="M9 20h-4c-0.276 0-0.525-0.111-0.707-0.293s-0.293-0.431-0.293-0.707v-14c0-0.276 0.111-0.525 0.293-0.707s0.431-0.293 0.707-0.293h4c0.552 0 1-0.448 1-1s-0.448-1-1-1h-4c-0.828 0-1.58 0.337-2.121 0.879s-0.879 1.293-0.879 2.121v14c0 0.828 0.337 1.58 0.879 2.121s1.293 0.879 2.121 0.879h4c0.552 0 1-0.448 1-1s-0.448-1-1-1zM18.586 11h-9.586c-0.552 0-1 0.448-1 1s0.448 1 1 1h9.586l-3.293 3.293c-0.391 0.391-0.391 1.024 0 1.414s1.024 0.391 1.414 0l5-5c0.092-0.092 0.166-0.202 0.217-0.324 0.15-0.362 0.078-0.795-0.217-1.090l-5-5c-0.391-0.391-1.024-0.391-1.414 0s-0.391 1.024 0 1.414z">
    </path>
  </symbol>


  <symbol xmlns="http://www.w3.org/2000/svg" fill="none" viewBox="0 0 32 32" id="close">
    <path stroke-linecap="round" stroke-linejoin="round" stroke-width="2.5" d="M24 8 8 24M8 8l16 16"></path>
  </symbol>



  <symbol xmlns="http://www.w3.org/2000/svg" id="menu" viewBox="0 0 32 32">
    <path d="M0 0h32v3.2H0V0zm0 14.399h32v3.2H0v-3.2zM0 28.8h32V32H0v-3.2z" />
  </symbol>


  <symbol xmlns="http://www.w3.org/2000/svg" fill="none" viewBox="0 0 20 20" id="eye-off">
    <g stroke="#121417" stroke-linecap="round" stroke-linejoin="round" stroke-width="2" clip-path="url(#a)">
      <path
        d="M14.95 14.95A8.391 8.391 0 0 1 10 16.667C4.167 16.667.833 10 .833 10A15.375 15.375 0 0 1 5.05 5.05m3.2-1.517a7.6 7.6 0 0 1 1.75-.2c5.833 0 9.167 6.667 9.167 6.667a15.42 15.42 0 0 1-1.8 2.658m-5.6-.891a2.501 2.501 0 0 1-4.329-1.749 2.5 2.5 0 0 1 .795-1.785M.833.833l18.334 18.334">
      </path>
    </g>
    <defs>
      <clipPath id="a">
        <path fill="#fff" d="M0 0h20v20H0z"></path>
      </clipPath>
    </defs>
  </symbol>
  <symbol xmlns="http://www.w3.org/2000/svg" id="eye" viewBox="0 0 32 32">
    <path stroke-linecap="round" stroke-linejoin="round" stroke-width="2.88"
      d="M1.333 16S6.666 5.333 16 5.333 30.667 16 30.667 16 25.334 26.667 16 26.667 1.333 16 1.333 16z" />
    <path stroke-linecap="round" stroke-linejoin="round" stroke-width="2.88" d="M16 20a4 4 0 1 0 0-8 4 4 0 0 0 0 8z" />
  </symbol>


  <symbol xmlns="http://www.w3.org/2000/svg" fill="none" viewBox="0 0 20 20" id="arrow-down">
    <path stroke="#121417" stroke-linecap="round" stroke-linejoin="round" stroke-width="2" d="m5 7.5 5 5 5-5"></path>
  </symbol>


  <symbol xmlns="http://www.w3.org/2000/svg" fill="none" viewBox="0 0 16 16" id="book">
    <path stroke="#000" stroke-linecap="round" stroke-linejoin="round" stroke-width="1.5"
      d="M14.667 4.133c0-.746 0-1.12-.146-1.405a1.333 1.333 0 0 0-.582-.583C13.653 2 13.28 2 12.533 2h-.266c-1.494 0-2.24 0-2.811.29-.502.256-.91.664-1.165 1.166C8 4.026 8 4.773 8 6.266V14l.067-.1c.463-.695.694-1.042 1-1.293.271-.223.583-.39.919-.492.378-.115.796-.115 1.63-.115h.917c.747 0 1.12 0 1.406-.145.25-.128.454-.332.582-.583.146-.285.146-.659.146-1.405V4.133ZM1.333 4.133c0-.746 0-1.12.146-1.405.127-.25.331-.455.582-.583C2.346 2 2.72 2 3.467 2h.266c1.494 0 2.24 0 2.81.29.503.256.91.664 1.166 1.166.29.57.29 1.317.29 2.81V14l-.066-.1c-.463-.695-.694-1.042-1-1.293a2.665 2.665 0 0 0-.919-.492C5.635 12 5.218 12 4.384 12h-.917c-.747 0-1.12 0-1.406-.145a1.334 1.334 0 0 1-.582-.583c-.146-.285-.146-.659-.146-1.405V4.133Z">
    </path>
  </symbol>


  <symbol xmlns="http://www.w3.org/2000/svg" fill="none" viewBox="0 0 16 16" id="star">
    <g clip-path="url(#a)">
      <path fill="#FFC531" stroke="#FFC531" stroke-width="1.2"
        d="M6.2 4.697 8 1.286l1.8 3.411c.159.302.45.512.785.57l3.8.658-2.688 2.766a1.1 1.1 0 0 0-.3.923l.55 3.818-3.462-1.702a1.1 1.1 0 0 0-.97 0l-3.462 1.702.55-3.818a1.1 1.1 0 0 0-.3-.923L1.614 5.925l3.8-.657a1.1 1.1 0 0 0 .786-.571Zm8.318 1.092ZM3.883 13.515Z">
      </path>
    </g>
    <defs>
      <clipPath id="a">
        <path fill="#fff" d="M0 0h16v16H0z"></path>
      </clipPath>
    </defs>
  </symbol>


  <symbol xmlns="http://www.w3.org/2000/svg" fill="none" viewBox="0 0 26 26" id="favorite">
    <path stroke="#121417" stroke-linecap="round" stroke-linejoin="round" stroke-width="2"
      d="M22.577 4.994a5.959 5.959 0 0 0-8.429 0L13 6.143l-1.148-1.149a5.96 5.96 0 1 0-8.429 8.428l1.149 1.149L13 22.999l8.428-8.428 1.149-1.149a5.96 5.96 0 0 0 0-8.428Z">
    </path>
  </symbol>


</svg>
