<svg width="0" height="0" class="hidden">
  <symbol xmlns="http://www.w3.org/2000/svg" fill="none" viewBox="0 0 28 28" id="logo">
    <g clip-path="url(#a)">
      <path fill="#FFDA44" d="M14 28c7.732 0 14-6.268 14-14S21.732 0 14 0 0 6.268 0 14s6.268 14 14 14Z"></path>
      <path fill="#338AF3" d="M0 14C0 6.268 6.268 0 14 0s14 6.268 14 14"></path>
    </g>
    <defs>
      <clipPath id="a">
        <path fill="#fff" d="M0 0h28v28H0z"></path>
      </clipPath>
    </defs>
  </symbol>

  <symbol xmlns="http://www.w3.org/2000/svg" fill="none" viewBox="0 0 20 20" id="login">
    <path stroke="#F4C550" stroke-linecap="round" stroke-linejoin="round" stroke-width="2" d="M12.5 2.5h1c1.4 0 2.1 0 2.635.272a2.5 2.5 0 0 1 1.092 1.093C17.5 4.4 17.5 5.1 17.5 6.5v7c0 1.4 0 2.1-.273 2.635a2.5 2.5 0 0 1-1.092 1.092c-.535.273-1.235.273-2.635.273h-1M8.333 5.833 12.5 10m0 0-4.167 4.167M12.5 10h-10"></path>
  </symbol>

</svg>
